<svg xmlns="http://www.w3.org/2000/svg" xmlns:v="https://svgstorm.com"
viewBox = "0 0 1510 1060"
width="1510"
height="1060">
<g fill="None" fill-opacity="0.0" stroke="#FEFFFF" stroke-opacity="0" stroke-width="0.3"><path d="
M 0.00 1060.00 
L 1510.00 1060.00
L 1510.00 0.00
L 0.00 0.00
L 0.00 1060.00
M 1006.00 513.00 
C 1023.11 366.52 868.13 233.69 727.98 293.98 C 711.06 276.36 707.21 243.89 697.02 219.98 C 683.55 194.59 676.88 163.93 715.07 162.07 C 798.95 133.46 895.99 144.99 971.68 187.66 C 1004.57 165.89 958.91 152.11 939.98 144.02 C 728.59 58.73 491.33 218.14 426.08 422.08 C 421.91 443.02 391.77 496.51 435.00 482.00
C 440.28 456.82 447.71 432.20 457.32 408.32 C 472.70 393.16 498.20 425.39 517.69 430.31 C 532.27 445.27 576.13 447.15 562.02 475.02 C 551.59 500.58 555.75 532.31 546.77 556.77 C 520.21 560.06 491.00 571.78 465.31 558.69 C 441.42 547.33 440.61 515.27 429.75 498.80 C 417.04 542.08 385.60 595.53 329.00 592.00 C 289.47 607.54 310.80 548.33 308.00 526.00 C 332.26 226.91 637.78 -53.25 946.68 38.32 C 1084.95 76.46 1194.61 200.86 1228.32 337.68 C 1231.12 361.99 1247.97 392.89 1236.30 414.30 C 1216.33 427.51 1195.23 438.79 1173.78 448.78 C 1139.39 472.18 1154.23 414.96 1144.07 395.93 C 1138.50 370.72 1131.53 345.83 1120.70 322.31 C 1112.54 305.17 1099.05 263.48 1080.75 295.75 C 1102.83 340.89 1121.63 390.47 1126.93 442.07 C 1139.77 476.25 1101.02 478.92 1078.98 488.98 C 1055.01 497.94 1030.94 506.96 1006.00 513.00
M 697.00 307.00 
C 648.09 335.25 604.67 378.26 580.00 429.00
C 556.94 422.60 537.20 406.97 515.77 396.23 C 495.58 386.83 460.64 373.71 486.77 348.77 C 519.94 289.24 571.67 235.54 630.75 200.75 C 658.87 173.22 665.80 210.70 672.78 233.22 C 680.73 257.89 691.69 281.56 697.00 307.00
M 870.00 425.00 
C 893.60 410.02 913.27 388.05 935.75 371.75 C 976.05 342.90 938.99 398.19 922.75 410.75 C 901.47 433.36 878.47 455.31 897.99 486.01 C 905.76 520.87 894.80 555.20 882.00 586.00
C 1057.01 536.66 1255.11 493.20 1380.31 347.31 C 1405.78 312.92 1378.22 267.90 1340.93 258.07 C 1308.23 235.92 1248.85 257.12 1231.00 220.00
C 1312.99 216.10 1406.49 202.46 1475.25 252.75 C 1521.51 320.67 1430.77 383.17 1380.25 417.25 C 1184.62 537.05 961.84 597.06 739.78 643.78 C 656.16 633.43 638.76 518.38 681.25 458.25 C 716.93 392.88 817.38 363.76 870.00 425.00
M 274.00 483.00 
C 256.82 527.61 195.95 541.95 167.23 583.23 C 131.50 615.21 97.81 685.14 153.70 715.30 C 327.09 779.42 524.40 726.59 699.07 699.07 C 755.97 688.50 811.41 672.76 868.00 661.00
C 795.28 688.68 718.52 705.95 644.00 729.00
C 741.12 805.52 896.49 757.33 958.30 653.30 C 992.05 603.18 1065.73 606.75 1116.00 578.00
C 1080.32 832.25 735.88 1013.42 533.25 819.75 C 504.20 805.14 494.22 745.48 458.00 767.00
C 585.31 1003.38 948.63 957.49 1072.75 739.75 C 1098.89 699.06 1120.89 655.28 1133.93 608.93 C 1132.66 549.21 1200.66 547.40 1241.00 523.00
C 1227.19 711.23 1110.27 892.12 939.92 977.92 C 764.76 1073.08 515.34 1035.01 400.00 863.00
C 380.48 847.52 362.95 801.95 344.99 778.01 C 255.98 783.34 160.67 788.64 76.78 762.22 C -18.56 739.34 35.10 631.03 93.25 595.25 C 148.49 549.55 209.73 512.51 274.00 483.00
M 552.00 584.00 
C 558.30 608.41 564.18 633.17 576.31 655.70 C 595.70 683.18 536.74 671.93 519.00 679.00 C 489.68 682.69 459.87 684.46 430.00 686.00
C 438.00 625.87 486.48 576.69 552.00 584.00
M 428.00 686.00 
C 397.43 685.91 366.53 687.31 337.33 681.67 C 308.33 684.83 303.23 633.21 315.67 622.67 C 368.57 597.58 423.32 629.60 428.00 686.00 Z"/>
</g>
<g fill="None" fill-opacity="0.0" stroke="#2367AE" stroke-opacity="1.00" stroke-width="0.3"><path d="
M 1006.00 513.00 
C 1030.94 506.96 1055.01 497.94 1078.98 488.98 C 1101.02 478.92 1139.77 476.25 1126.93 442.07 C 1121.63 390.47 1102.83 340.89 1080.75 295.75 C 1099.05 263.48 1112.54 305.17 1120.70 322.31 C 1131.53 345.83 1138.50 370.72 1144.07 395.93 C 1154.23 414.96 1139.39 472.18 1173.78 448.78 C 1195.23 438.79 1216.33 427.51 1236.30 414.30 C 1247.97 392.89 1231.12 361.99 1228.32 337.68 C 1194.61 200.86 1084.95 76.46 946.68 38.32 C 637.78 -53.25 332.26 226.91 308.00 526.00 C 310.80 548.33 289.47 607.54 329.00 592.00 C 385.60 595.53 417.04 542.08 429.75 498.80 C 440.61 515.27 441.42 547.33 465.31 558.69 C 491.00 571.78 520.21 560.06 546.77 556.77 C 555.75 532.31 551.59 500.58 562.02 475.02 C 576.13 447.15 532.27 445.27 517.69 430.31 C 498.20 425.39 472.70 393.16 457.32 408.32 C 447.71 432.20 440.28 456.82 435.00 482.00
C 391.77 496.51 421.91 443.02 426.08 422.08 C 491.33 218.14 728.59 58.73 939.98 144.02 C 958.91 152.11 1004.57 165.89 971.68 187.66 C 895.99 144.99 798.95 133.46 715.07 162.07 C 676.88 163.93 683.55 194.59 697.02 219.98 C 707.21 243.89 711.06 276.36 727.98 293.98 C 868.13 233.69 1023.11 366.52 1006.00 513.00
M 1058.00 168.00 
C 1126.09 185.80 1090.43 296.28 1024.98 280.02 C 953.01 266.09 992.01 152.49 1058.00 168.00 Z"/>
</g>
<g fill="None" fill-opacity="0.0" stroke="#FEFFFF" stroke-opacity="0" stroke-width="0.3"><path d="
M 1058.00 168.00 
C 992.01 152.49 953.01 266.09 1024.98 280.02 C 1090.43 296.28 1126.09 185.80 1058.00 168.00 Z"/>
</g>
<g fill="None" fill-opacity="0.0" stroke="#2367AE" stroke-opacity="1.00" stroke-width="0.3"><path d="
M 697.00 307.00 
C 691.69 281.56 680.73 257.89 672.78 233.22 C 665.80 210.70 658.87 173.22 630.75 200.75 C 571.67 235.54 519.94 289.24 486.77 348.77 C 460.64 373.71 495.58 386.83 515.77 396.23 C 537.20 406.97 556.94 422.60 580.00 429.00
C 604.67 378.26 648.09 335.25 697.00 307.00 Z"/>
</g>
<g fill="None" fill-opacity="0.0" stroke="#2367AE" stroke-opacity="1.00" stroke-width="0.3"><path d="
M 870.00 425.00 
C 817.38 363.76 716.93 392.88 681.25 458.25 C 638.76 518.38 656.16 633.43 739.78 643.78 C 961.84 597.06 1184.62 537.05 1380.25 417.25 C 1430.77 383.17 1521.51 320.67 1475.25 252.75 C 1406.49 202.46 1312.99 216.10 1231.00 220.00
C 1248.85 257.12 1308.23 235.92 1340.93 258.07 C 1378.22 267.90 1405.78 312.92 1380.31 347.31 C 1255.11 493.20 1057.01 536.66 882.00 586.00
C 894.80 555.20 905.76 520.87 897.99 486.01 C 878.47 455.31 901.47 433.36 922.75 410.75 C 938.99 398.19 976.05 342.90 935.75 371.75 C 913.27 388.05 893.60 410.02 870.00 425.00
M 787.00 499.00 
C 838.58 456.43 889.01 412.96 940.25 370.25 C 971.20 352.88 934.47 394.98 924.75 404.75 C 878.12 452.12 844.32 515.78 789.98 552.98 C 762.70 558.56 751.43 529.11 735.25 513.75 C 727.41 503.70 689.53 470.02 720.23 470.77 C 742.76 479.52 764.08 491.40 787.00 499.00 Z"/>
</g>
<g fill="None" fill-opacity="0.0" stroke="#FEFFFF" stroke-opacity="0" stroke-width="0.3"><path d="
M 787.00 499.00 
C 764.08 491.40 742.76 479.52 720.23 470.77 C 689.53 470.02 727.41 503.70 735.25 513.75 C 751.43 529.11 762.70 558.56 789.98 552.98 C 844.32 515.78 878.12 452.12 924.75 404.75 C 934.47 394.98 971.20 352.88 940.25 370.25 C 889.01 412.96 838.58 456.43 787.00 499.00 Z"/>
</g>
<g fill="None" fill-opacity="0.0" stroke="#2367AE" stroke-opacity="1.00" stroke-width="0.3"><path d="
M 274.00 483.00 
C 209.73 512.51 148.49 549.55 93.25 595.25 C 35.10 631.03 -18.56 739.34 76.78 762.22 C 160.67 788.64 255.98 783.34 344.99 778.01 C 362.95 801.95 380.48 847.52 400.00 863.00
C 515.34 1035.01 764.76 1073.08 939.92 977.92 C 1110.27 892.12 1227.19 711.23 1241.00 523.00
C 1200.66 547.40 1132.66 549.21 1133.93 608.93 C 1120.89 655.28 1098.89 699.06 1072.75 739.75 C 948.63 957.49 585.31 1003.38 458.00 767.00
C 494.22 745.48 504.20 805.14 533.25 819.75 C 735.88 1013.42 1080.32 832.25 1116.00 578.00
C 1065.73 606.75 992.05 603.18 958.30 653.30 C 896.49 757.33 741.12 805.52 644.00 729.00
C 718.52 705.95 795.28 688.68 868.00 661.00
C 811.41 672.76 755.97 688.50 699.07 699.07 C 524.40 726.59 327.09 779.42 153.70 715.30 C 97.81 685.14 131.50 615.21 167.23 583.23 C 195.95 541.95 256.82 527.61 274.00 483.00 Z"/>
</g>
<g fill="None" fill-opacity="0.0" stroke="#2367AE" stroke-opacity="1.00" stroke-width="0.3"><path d="
M 552.00 584.00 
C 486.48 576.69 438.00 625.87 430.00 686.00
C 459.87 684.46 489.68 682.69 519.00 679.00 C 536.74 671.93 595.70 683.18 576.31 655.70 C 564.18 633.17 558.30 608.41 552.00 584.00 Z"/>
</g>
<g fill="None" fill-opacity="0.0" stroke="#2367AE" stroke-opacity="1.00" stroke-width="0.3"><path d="
M 428.00 686.00 
C 423.32 629.60 368.57 597.58 315.67 622.67 C 303.23 633.21 308.33 684.83 337.33 681.67 C 366.53 687.31 397.43 685.91 428.00 686.00 Z"/>
</g>
<g fill="#FEFFFF" fill-opacity="0" stroke="None">
<path d="
M 0.00 1060.00 
L 1510.00 1060.00
L 1510.00 0.00
L 0.00 0.00
L 0.00 1060.00
M 1006.00 513.00 
C 1023.11 366.52 868.13 233.69 727.98 293.98 C 711.06 276.36 707.21 243.89 697.02 219.98 C 683.55 194.59 676.88 163.93 715.07 162.07 C 798.95 133.46 895.99 144.99 971.68 187.66 C 1004.57 165.89 958.91 152.11 939.98 144.02 C 728.59 58.73 491.33 218.14 426.08 422.08 C 421.91 443.02 391.77 496.51 435.00 482.00
C 440.28 456.82 447.71 432.20 457.32 408.32 C 472.70 393.16 498.20 425.39 517.69 430.31 C 532.27 445.27 576.13 447.15 562.02 475.02 C 551.59 500.58 555.75 532.31 546.77 556.77 C 520.21 560.06 491.00 571.78 465.31 558.69 C 441.42 547.33 440.61 515.27 429.75 498.80 C 417.04 542.08 385.60 595.53 329.00 592.00 C 289.47 607.54 310.80 548.33 308.00 526.00 C 332.26 226.91 637.78 -53.25 946.68 38.32 C 1084.95 76.46 1194.61 200.86 1228.32 337.68 C 1231.12 361.99 1247.97 392.89 1236.30 414.30 C 1216.33 427.51 1195.23 438.79 1173.78 448.78 C 1139.39 472.18 1154.23 414.96 1144.07 395.93 C 1138.50 370.72 1131.53 345.83 1120.70 322.31 C 1112.54 305.17 1099.05 263.48 1080.75 295.75 C 1102.83 340.89 1121.63 390.47 1126.93 442.07 C 1139.77 476.25 1101.02 478.92 1078.98 488.98 C 1055.01 497.94 1030.94 506.96 1006.00 513.00
M 697.00 307.00 
C 648.09 335.25 604.67 378.26 580.00 429.00
C 556.94 422.60 537.20 406.97 515.77 396.23 C 495.58 386.83 460.64 373.71 486.77 348.77 C 519.94 289.24 571.67 235.54 630.75 200.75 C 658.87 173.22 665.80 210.70 672.78 233.22 C 680.73 257.89 691.69 281.56 697.00 307.00
M 870.00 425.00 
C 893.60 410.02 913.27 388.05 935.75 371.75 C 976.05 342.90 938.99 398.19 922.75 410.75 C 901.47 433.36 878.47 455.31 897.99 486.01 C 905.76 520.87 894.80 555.20 882.00 586.00
C 1057.01 536.66 1255.11 493.20 1380.31 347.31 C 1405.78 312.92 1378.22 267.90 1340.93 258.07 C 1308.23 235.92 1248.85 257.12 1231.00 220.00
C 1312.99 216.10 1406.49 202.46 1475.25 252.75 C 1521.51 320.67 1430.77 383.17 1380.25 417.25 C 1184.62 537.05 961.84 597.06 739.78 643.78 C 656.16 633.43 638.76 518.38 681.25 458.25 C 716.93 392.88 817.38 363.76 870.00 425.00
M 274.00 483.00 
C 256.82 527.61 195.95 541.95 167.23 583.23 C 131.50 615.21 97.81 685.14 153.70 715.30 C 327.09 779.42 524.40 726.59 699.07 699.07 C 755.97 688.50 811.41 672.76 868.00 661.00
C 795.28 688.68 718.52 705.95 644.00 729.00
C 741.12 805.52 896.49 757.33 958.30 653.30 C 992.05 603.18 1065.73 606.75 1116.00 578.00
C 1080.32 832.25 735.88 1013.42 533.25 819.75 C 504.20 805.14 494.22 745.48 458.00 767.00
C 585.31 1003.38 948.63 957.49 1072.75 739.75 C 1098.89 699.06 1120.89 655.28 1133.93 608.93 C 1132.66 549.21 1200.66 547.40 1241.00 523.00
C 1227.19 711.23 1110.27 892.12 939.92 977.92 C 764.76 1073.08 515.34 1035.01 400.00 863.00
C 380.48 847.52 362.95 801.95 344.99 778.01 C 255.98 783.34 160.67 788.64 76.78 762.22 C -18.56 739.34 35.10 631.03 93.25 595.25 C 148.49 549.55 209.73 512.51 274.00 483.00
M 552.00 584.00 
C 558.30 608.41 564.18 633.17 576.31 655.70 C 595.70 683.18 536.74 671.93 519.00 679.00 C 489.68 682.69 459.87 684.46 430.00 686.00
C 438.00 625.87 486.48 576.69 552.00 584.00
M 428.00 686.00 
C 397.43 685.91 366.53 687.31 337.33 681.67 C 308.33 684.83 303.23 633.21 315.67 622.67 C 368.57 597.58 423.32 629.60 428.00 686.00 Z"/>
</g>
<g fill="#2367AE" fill-opacity="1.00" stroke="None">
<path d="
M 1006.00 513.00 
C 1030.94 506.96 1055.01 497.94 1078.98 488.98 C 1101.02 478.92 1139.77 476.25 1126.93 442.07 C 1121.63 390.47 1102.83 340.89 1080.75 295.75 C 1099.05 263.48 1112.54 305.17 1120.70 322.31 C 1131.53 345.83 1138.50 370.72 1144.07 395.93 C 1154.23 414.96 1139.39 472.18 1173.78 448.78 C 1195.23 438.79 1216.33 427.51 1236.30 414.30 C 1247.97 392.89 1231.12 361.99 1228.32 337.68 C 1194.61 200.86 1084.95 76.46 946.68 38.32 C 637.78 -53.25 332.26 226.91 308.00 526.00 C 310.80 548.33 289.47 607.54 329.00 592.00 C 385.60 595.53 417.04 542.08 429.75 498.80 C 440.61 515.27 441.42 547.33 465.31 558.69 C 491.00 571.78 520.21 560.06 546.77 556.77 C 555.75 532.31 551.59 500.58 562.02 475.02 C 576.13 447.15 532.27 445.27 517.69 430.31 C 498.20 425.39 472.70 393.16 457.32 408.32 C 447.71 432.20 440.28 456.82 435.00 482.00
C 391.77 496.51 421.91 443.02 426.08 422.08 C 491.33 218.14 728.59 58.73 939.98 144.02 C 958.91 152.11 1004.57 165.89 971.68 187.66 C 895.99 144.99 798.95 133.46 715.07 162.07 C 676.88 163.93 683.55 194.59 697.02 219.98 C 707.21 243.89 711.06 276.36 727.98 293.98 C 868.13 233.69 1023.11 366.52 1006.00 513.00
M 1058.00 168.00 
C 1126.09 185.80 1090.43 296.28 1024.98 280.02 C 953.01 266.09 992.01 152.49 1058.00 168.00 Z"/>
</g>
<g fill="#FEFFFF" fill-opacity="0" stroke="None">
<path d="
M 1058.00 168.00 
C 992.01 152.49 953.01 266.09 1024.98 280.02 C 1090.43 296.28 1126.09 185.80 1058.00 168.00 Z"/>
</g>
<g fill="#2367AE" fill-opacity="1.00" stroke="None">
<path d="
M 697.00 307.00 
C 691.69 281.56 680.73 257.89 672.78 233.22 C 665.80 210.70 658.87 173.22 630.75 200.75 C 571.67 235.54 519.94 289.24 486.77 348.77 C 460.64 373.71 495.58 386.83 515.77 396.23 C 537.20 406.97 556.94 422.60 580.00 429.00
C 604.67 378.26 648.09 335.25 697.00 307.00 Z"/>
</g>
<g fill="#2367AE" fill-opacity="1.00" stroke="None">
<path d="
M 870.00 425.00 
C 817.38 363.76 716.93 392.88 681.25 458.25 C 638.76 518.38 656.16 633.43 739.78 643.78 C 961.84 597.06 1184.62 537.05 1380.25 417.25 C 1430.77 383.17 1521.51 320.67 1475.25 252.75 C 1406.49 202.46 1312.99 216.10 1231.00 220.00
C 1248.85 257.12 1308.23 235.92 1340.93 258.07 C 1378.22 267.90 1405.78 312.92 1380.31 347.31 C 1255.11 493.20 1057.01 536.66 882.00 586.00
C 894.80 555.20 905.76 520.87 897.99 486.01 C 878.47 455.31 901.47 433.36 922.75 410.75 C 938.99 398.19 976.05 342.90 935.75 371.75 C 913.27 388.05 893.60 410.02 870.00 425.00
M 787.00 499.00 
C 838.58 456.43 889.01 412.96 940.25 370.25 C 971.20 352.88 934.47 394.98 924.75 404.75 C 878.12 452.12 844.32 515.78 789.98 552.98 C 762.70 558.56 751.43 529.11 735.25 513.75 C 727.41 503.70 689.53 470.02 720.23 470.77 C 742.76 479.52 764.08 491.40 787.00 499.00 Z"/>
</g>
<g fill="#FEFFFF" fill-opacity="0" stroke="None">
<path d="
M 787.00 499.00 
C 764.08 491.40 742.76 479.52 720.23 470.77 C 689.53 470.02 727.41 503.70 735.25 513.75 C 751.43 529.11 762.70 558.56 789.98 552.98 C 844.32 515.78 878.12 452.12 924.75 404.75 C 934.47 394.98 971.20 352.88 940.25 370.25 C 889.01 412.96 838.58 456.43 787.00 499.00 Z"/>
</g>
<g fill="#2367AE" fill-opacity="1.00" stroke="None">
<path d="
M 274.00 483.00 
C 209.73 512.51 148.49 549.55 93.25 595.25 C 35.10 631.03 -18.56 739.34 76.78 762.22 C 160.67 788.64 255.98 783.34 344.99 778.01 C 362.95 801.95 380.48 847.52 400.00 863.00
C 515.34 1035.01 764.76 1073.08 939.92 977.92 C 1110.27 892.12 1227.19 711.23 1241.00 523.00
C 1200.66 547.40 1132.66 549.21 1133.93 608.93 C 1120.89 655.28 1098.89 699.06 1072.75 739.75 C 948.63 957.49 585.31 1003.38 458.00 767.00
C 494.22 745.48 504.20 805.14 533.25 819.75 C 735.88 1013.42 1080.32 832.25 1116.00 578.00
C 1065.73 606.75 992.05 603.18 958.30 653.30 C 896.49 757.33 741.12 805.52 644.00 729.00
C 718.52 705.95 795.28 688.68 868.00 661.00
C 811.41 672.76 755.97 688.50 699.07 699.07 C 524.40 726.59 327.09 779.42 153.70 715.30 C 97.81 685.14 131.50 615.21 167.23 583.23 C 195.95 541.95 256.82 527.61 274.00 483.00 Z"/>
</g>
<g fill="#2367AE" fill-opacity="1.00" stroke="None">
<path d="
M 552.00 584.00 
C 486.48 576.69 438.00 625.87 430.00 686.00
C 459.87 684.46 489.68 682.69 519.00 679.00 C 536.74 671.93 595.70 683.18 576.31 655.70 C 564.18 633.17 558.30 608.41 552.00 584.00 Z"/>
</g>
<g fill="#2367AE" fill-opacity="1.00" stroke="None">
<path d="
M 428.00 686.00 
C 423.32 629.60 368.57 597.58 315.67 622.67 C 303.23 633.21 308.33 684.83 337.33 681.67 C 366.53 687.31 397.43 685.91 428.00 686.00 Z"/>
</g>
</svg>